<svg id="Capa_1" enable-background="new 0 0 512 512" height="512" viewBox="0 0 512 512" width="512" xmlns="http://www.w3.org/2000/svg"><path d="m268.243 337.669-109.895 152.966c-.21.292-.428.579-.653.859-9.592 11.936-27.401 20.504-42.757 20.504-14.025 0-27.658-5.409-37.871-15.131l-70.85-67.374c-8.004-7.612-8.323-20.271-.711-28.275 7.612-8.003 20.271-8.321 28.275-.711l70.857 67.381c3.06 2.913 7.057 4.356 11.261 4.078 4.062-.271 7.718-2.112 10.342-5.198l109.516-152.438c6.445-8.971 18.942-11.018 27.912-4.573 8.971 6.445 11.019 18.942 4.574 27.912zm229.194 6.73c9.391-10.606 14.563-24.243 14.563-38.399 0-18.026-8.428-34.431-21.982-44.979 5.151-8.676 7.982-18.674 7.982-29.021 0-31.43-25.57-57-57-57h-131.574c-9.981 0-23.996-6.38-25.437-16.861 2.218-8.856 36.998-78.643 36.998-78.643 2.358-6.865 3.44-14.055 3.216-21.368-.476-15.485-6.886-30.03-18.051-40.956-11.159-10.92-25.834-17.018-41.323-17.17-16.437-.15-31.91 6.229-43.445 17.996-2.06 2.266-9.604 12.413-13.717 18.808l-97.675 152.096c-2.452 3.818-6.625 6.098-11.164 6.098h-78.828c-11.046 0-20 8.954-20 20 0 11.045 8.954 20 20 20h78.828c18.22 0 34.976-9.153 44.821-24.483l107.238-165.416c3.725-3.348 8.48-5.146 13.549-5.1 10.585.104 19.461 8.786 19.785 19.354.065 2.107-.188 4.171-.752 6.15-2.883 5.851-39.577 80.101-39.577 92.125l.015.764c1.336 34.963 35.049 56.606 65.519 56.606h131.574c9.374 0 17 7.626 17 17 0 5.542-2.767 10.771-7.4 13.986-9.588 6.652-11.6 14.555-11.6 20.014 0 11.025 8.081 20.472 20.107 23.506 7.471 1.886 12.893 8.822 12.893 16.494 0 8.701-6.448 16.4-14.079 16.813-18.883 1.019-23.921 14.065-23.921 21.612 0 8.755 4.481 15.615 13.318 20.389.286.154.601.322.939.518 5.352 3.082 8.676 8.702 8.676 14.668 0 9.374-7.815 17-17.422 17h-4.511c-14.019 0-25 9.963-25 22.682 0 4.75 1.675 13.641 12.894 19.83 2.136 1.178 9.106 5.665 9.106 13.917 0 5.584-1.677 18.571-17.214 18.571h-183.786c-11.046 0-20 8.954-20 20 0 11.045 8.954 20 20 20h183.786c33.152 0 57.214-24.633 57.214-58.571 0-8.116-1.869-16.018-5.315-23.225 17.995-9.635 30.249-28.525 30.249-50.204 0-9.992-2.684-19.659-7.535-28.115 2.874-2.193 5.566-4.696 8.038-7.486z"/></svg>