<svg width="208.89130859374998px" height="63.1800048828125px" xmlns="http://www.w3.org/2000/svg" viewBox="145.55434570312502 43.40999755859375 208.89130859374998 63.1800048828125" style="background: none;" preserveAspectRatio="xMidYMid"><defs><linearGradient id="editing-outline-gradient" x1="-0.5" x2="1.5" y1="0.5" y2="0.5"><stop offset="0" stop-color="#689cc5"></stop><stop offset="1" stop-color="#5e6fa3"></stop></linearGradient><filter id="editing-outline" x="-100%" y="-100%" width="300%" height="300%"><feMorphology in="SourceGraphic" operator="dilate" radius="2" result="outline"></feMorphology><feComposite operator="out" in="outline" in2="SourceAlpha"></feComposite></filter></defs><g filter="url(#editing-outline)"><g transform="translate(180.54718542099, 87.7862491607666)"><path d="M11.66-20.30L11.66-20.30Q16.10-20.30 18.68-18.08L18.68-18.08L18.68-18.08Q21.26-15.86 21.26-11.75L21.26-11.75L15.14-11.75L15.14-11.75Q15.14-13.49 14.22-14.50L14.22-14.50L14.22-14.50Q13.31-15.52 11.63-15.52L11.63-15.52L11.63-15.52Q9.69-15.52 8.77-14.30L8.77-14.30L8.77-14.30Q7.86-13.08 7.86-10.90L7.86-10.90L7.86-9.05L7.86-9.05Q7.86-6.90 8.77-5.67L8.77-5.67L8.77-5.67Q9.69-4.44 11.57-4.44L11.57-4.44L11.57-4.44Q13.43-4.44 14.38-5.39L14.38-5.39L14.38-5.39Q15.34-6.35 15.34-8.09L15.34-8.09L21.26-8.09L21.26-8.09Q21.26-4.00 18.75-1.83L18.75-1.83L18.75-1.83Q16.24 0.35 11.66 0.35L11.66 0.35L11.66 0.35Q6.55 0.35 3.93-2.26L3.93-2.26L3.93-2.26Q1.31-4.87 1.31-9.98L1.31-9.98L1.31-9.98Q1.31-15.08 3.93-17.69L3.93-17.69L3.93-17.69Q6.55-20.30 11.66-20.30L11.66-20.30ZM31.87-15.66L31.87-15.66Q35.38-15.66 37.58-14.49L37.58-14.49L37.58-14.49Q39.79-13.31 39.79-10.67L39.79-10.67L39.79-4.70L39.79-4.70Q39.79-4.21 40.02-3.89L40.02-3.89L40.02-3.89Q40.25-3.57 40.72-3.57L40.72-3.57L41.76-3.57L41.76-0.23L41.76-0.23Q41.67-0.17 41.31-0.04L41.31-0.04L41.31-0.04Q40.95 0.09 40.28 0.22L40.28 0.22L40.28 0.22Q39.61 0.35 38.74 0.35L38.74 0.35L38.74 0.35Q37.06 0.35 35.97-0.16L35.97-0.16L35.97-0.16Q34.89-0.67 34.48-1.57L34.48-1.57L34.48-1.57Q33.38-0.70 32.02-0.17L32.02-0.17L32.02-0.17Q30.65 0.35 28.83 0.35L28.83 0.35L28.83 0.35Q23.43 0.35 23.43-3.94L23.43-3.94L23.43-3.94Q23.43-6.18 24.64-7.35L24.64-7.35L24.64-7.35Q25.84-8.53 28.10-8.96L28.10-8.96L28.10-8.96Q30.36-9.40 34.02-9.40L34.02-9.40L34.02-10.15L34.02-10.15Q34.02-11.05 33.39-11.51L33.39-11.51L33.39-11.51Q32.77-11.98 31.78-11.98L31.78-11.98L31.78-11.98Q30.89-11.98 30.23-11.66L30.23-11.66L30.23-11.66Q29.58-11.34 29.58-10.64L29.58-10.64L29.58-10.53L23.90-10.53L23.90-10.53Q23.87-10.67 23.87-10.93L23.87-10.93L23.87-10.93Q23.87-13.11 25.94-14.38L25.94-14.38L25.94-14.38Q28.01-15.66 31.87-15.66L31.87-15.66ZM34.02-6.67L34.02-6.67Q31.55-6.67 30.38-6.13L30.38-6.13L30.38-6.13Q29.20-5.60 29.20-4.70L29.20-4.70L29.20-4.70Q29.20-3.25 31.18-3.25L31.18-3.25L31.18-3.25Q32.31-3.25 33.16-3.86L33.16-3.86L33.16-3.86Q34.02-4.47 34.02-5.37L34.02-5.37L34.02-6.67ZM53.74-15.66L53.74-15.66Q56.84-15.66 58.52-13.63L58.52-13.63L58.52-13.63Q60.20-11.60 60.20-7.63L60.20-7.63L60.20-7.63Q60.20-3.68 58.52-1.67L58.52-1.67L58.52-1.67Q56.84 0.35 53.74 0.35L53.74 0.35L53.74 0.35Q51.07 0.35 49.45-1.39L49.45-1.39L49.45 5.71L43.67 5.71L43.67-15.31L48.37-15.31L48.87-13.14L48.87-13.14Q50.55-15.66 53.74-15.66L53.74-15.66ZM51.94-11.40L51.94-11.40Q50.66-11.40 50.03-10.50L50.03-10.50L50.03-10.50Q49.39-9.60 49.39-8.15L49.39-8.15L49.39-7.19L49.39-7.19Q49.39-5.74 50.03-4.83L50.03-4.83L50.03-4.83Q50.66-3.92 51.94-3.92L51.94-3.92L51.94-3.92Q54.43-3.92 54.43-6.90L54.43-6.90L54.43-8.44L54.43-8.44Q54.43-11.40 51.94-11.40L51.94-11.40ZM78.82 0L74.09 0L73.72-2.32L73.72-2.32Q72.82-1.07 71.35-0.36L71.35-0.36L71.35-0.36Q69.89 0.35 68.27 0.35L68.27 0.35L68.27 0.35Q65.60 0.35 64.26-1.13L64.26-1.13L64.26-1.13Q62.93-2.61 62.93-5.39L62.93-5.39L62.93-15.31L68.70-15.31L68.70-6.09L68.70-6.09Q68.70-5.10 69.21-4.51L69.21-4.51L69.21-4.51Q69.72-3.92 70.64-3.92L70.64-3.92L70.64-3.92Q71.72-3.92 72.38-4.61L72.38-4.61L72.38-4.61Q73.05-5.31 73.05-6.32L73.05-6.32L73.05-15.31L78.82-15.31L78.82 0ZM90.25-15.66L90.25-15.66Q94.02-15.66 96.35-14.05L96.35-14.05L96.35-14.05Q98.69-12.44 98.69-9.13L98.69-9.13L93.09-9.13L93.09-9.13Q93.09-11.75 90.25-11.75L90.25-11.75L90.25-11.75Q87.41-11.75 87.41-8.47L87.41-8.47L87.41-6.82L87.41-6.82Q87.41-3.57 90.36-3.57L90.36-3.57L90.36-3.57Q93.32-3.57 93.32-6.24L93.32-6.24L98.69-6.24L98.69-6.24Q98.69-2.90 96.35-1.28L96.35-1.28L96.35-1.28Q94.02 0.35 90.25 0.35L90.25 0.35L90.25 0.35Q86.22 0.35 83.93-1.68L83.93-1.68L83.93-1.68Q81.64-3.71 81.64-7.66L81.64-7.66L81.64-7.66Q81.64-11.60 83.93-13.63L83.93-13.63L83.93-13.63Q86.22-15.66 90.25-15.66L90.25-15.66ZM109.59-15.66L109.59-15.66Q113.36-15.66 115.70-14.05L115.70-14.05L115.70-14.05Q118.03-12.44 118.03-9.13L118.03-9.13L112.43-9.13L112.43-9.13Q112.43-11.75 109.59-11.75L109.59-11.75L109.59-11.75Q106.75-11.75 106.75-8.47L106.75-8.47L106.75-6.82L106.75-6.82Q106.75-3.57 109.71-3.57L109.71-3.57L109.71-3.57Q112.67-3.57 112.67-6.24L112.67-6.24L118.03-6.24L118.03-6.24Q118.03-2.90 115.70-1.28L115.70-1.28L115.70-1.28Q113.36 0.35 109.59 0.35L109.59 0.35L109.59 0.35Q105.56 0.35 103.27-1.68L103.27-1.68L103.27-1.68Q100.98-3.71 100.98-7.66L100.98-7.66L100.98-7.66Q100.98-11.60 103.27-13.63L103.27-13.63L103.27-13.63Q105.56-15.66 109.59-15.66L109.59-15.66ZM128.93-15.66L128.93-15.66Q132.97-15.66 135.27-13.62L135.27-13.62L135.27-13.62Q137.58-11.57 137.58-7.66L137.58-7.66L137.58-7.66Q137.58-3.74 135.27-1.70L135.27-1.70L135.27-1.70Q132.97 0.35 128.93 0.35L128.93 0.35L128.93 0.35Q124.90 0.35 122.61-1.68L122.61-1.68L122.61-1.68Q120.32-3.71 120.32-7.66L120.32-7.66L120.32-7.66Q120.32-11.60 122.61-13.63L122.61-13.63L122.61-13.63Q124.90-15.66 128.93-15.66L128.93-15.66ZM128.93-11.75L128.93-11.75Q126.09-11.75 126.09-8.47L126.09-8.47L126.09-6.82L126.09-6.82Q126.09-3.57 128.93-3.57L128.93-3.57L128.93-3.57Q131.81-3.57 131.81-6.82L131.81-6.82L131.81-8.47L131.81-8.47Q131.81-11.75 128.93-11.75L128.93-11.75Z" fill="url(#editing-outline-gradient)"></path></g></g><style>text {
  font-size: 64px;
  font-family: Arial Black;
  dominant-baseline: central;
  text-anchor: middle;
}</style></svg>